<svg xmlns="http://www.w3.org/2000/svg" viewBox="0.5 0.5 16 16"><style>.st0{opacity:0}.st0,.st1{fill:#f6f6f6}.st2{fill:#424242}</style><g id="outline"><path class="st0" d="M.5.5h16v16H.5z"/><path class="st1" d="M14.498 8.5c0-.896-.597-1.647-1.411-1.9a1.995 1.995 0 0 0-.346-2.341 1.98 1.98 0 0 0-1.412-.585 1.99 1.99 0 0 0-.93.238c-.253-.814-1.004-1.41-1.899-1.41s-1.647.597-1.899 1.41a1.982 1.982 0 0 0-.929-.238c-.534 0-1.036.207-1.413.585a1.981 1.981 0 0 0-.585 1.413c0 .331.088.645.238.929-.813.252-1.41 1.003-1.41 1.899s.597 1.646 1.41 1.899c-.15.284-.238.598-.238.928 0 .534.207 1.036.585 1.415.377.377.879.584 1.413.584.331 0 .645-.088.929-.238.252.813 1.004 1.41 1.899 1.41s1.646-.597 1.899-1.41c.284.15.599.238.93.238.533 0 1.035-.208 1.412-.585s.585-.879.585-1.412c0-.331-.088-.646-.238-.93a1.994 1.994 0 0 0 1.41-1.899zm-6.926 2.241a1.962 1.962 0 0 0-.487-.825 1.975 1.975 0 0 0-.826-.488c.147-.28.239-.592.239-.928 0-.336-.092-.649-.239-.928.307-.095.592-.254.826-.488.238-.238.394-.524.486-.826.279.148.592.24.929.24.336 0 .649-.092.928-.239.095.307.254.592.487.825.234.234.519.394.826.489a1.977 1.977 0 0 0-.239.927c0 .337.092.649.239.928a1.969 1.969 0 0 0-.824.487 1.971 1.971 0 0 0-.489.826c-.278-.147-.591-.239-.928-.239s-.649.092-.928.239z"/></g><g id="icon_x5F_bg"><circle class="st2" cx="8.5" cy="4.5" r=".998"/><circle class="st2" cx="8.5" cy="12.5" r=".998"/><circle class="st2" cx="12.5" cy="8.5" r=".998"/><circle class="st2" cx="4.5" cy="8.5" r=".998"/><ellipse transform="rotate(-44.992 11.329 5.672)" class="st2" cx="11.329" cy="5.672" rx=".998" ry=".998"/><ellipse transform="rotate(-45.009 5.672 11.33)" class="st2" cx="5.672" cy="11.329" rx=".998" ry=".998"/><ellipse transform="rotate(-45.001 11.329 11.329)" class="st2" cx="11.329" cy="11.329" rx=".998" ry=".998"/><ellipse transform="rotate(-45.001 5.672 5.672)" class="st2" cx="5.672" cy="5.672" rx=".998" ry=".998"/></g></svg>