<?xml version="1.0" encoding="utf-8"?>
<!-- Generator: Adobe Illustrator 18.1.1, SVG Export Plug-In . SVG Version: 6.00 Build 0)  -->
<!DOCTYPE svg PUBLIC "-//W3C//DTD SVG 1.1//EN" "http://www.w3.org/Graphics/SVG/1.1/DTD/svg11.dtd">
<svg version="1.1" xmlns="http://www.w3.org/2000/svg" xmlns:xlink="http://www.w3.org/1999/xlink" x="0px" y="0px" width="16px"
	 height="16px" viewBox="0 0 16 16" style="enable-background:new 0 0 16 16;" xml:space="preserve">
<style type="text/css">
	.icon-canvas-transparent{opacity:0;fill:#F6F6F6;}
	.st0{opacity:0.5;fill:#007ACC;}
	.st1{opacity:0.4;fill:#007ACC;}
	.st2{opacity:0.3;fill:#007ACC;}
	.st3{opacity:0.2;fill:#007ACC;}
	.st4{opacity:0.1;fill:#007ACC;}
	.st5{fill:#007ACC;}
	.st6{opacity:0.9;fill:#007ACC;}
	.st7{opacity:0.8;fill:#007ACC;}
	.st8{opacity:0.7;fill:#007ACC;}
	.st9{opacity:0.6;fill:#007ACC;}
</style>
<g id="canvas">
	<path class="icon-canvas-transparent" d="M16,16H0V0h16V16z"/>
</g>
<g id="iconBg">
	<path class="st0" d="M10.472,13.431c-0.381-0.522-0.265-1.253,0.26-1.633s1.259-0.264,1.641,0.259s0.265,1.253-0.26,1.633
		S10.854,13.954,10.472,13.431z"/>
	<path class="st1" d="M13.217,10.939c-0.617-0.198-0.957-0.857-0.758-1.471s0.861-0.952,1.478-0.754
		c0.617,0.198,0.957,0.857,0.758,1.471C14.496,10.799,13.834,11.137,13.217,10.939z"/>
	<path class="st2" d="M13.955,7.315c-0.616,0.203-1.28-0.13-1.484-0.743s0.131-1.274,0.747-1.477c0.616-0.203,1.28,0.13,1.484,0.743
		C14.905,6.451,14.571,7.112,13.955,7.315z"/>
	<path class="st3" d="M12.404,3.955c-0.377,0.525-1.111,0.647-1.639,0.271s-0.65-1.106-0.273-1.631s1.111-0.647,1.639-0.271
		S12.781,3.43,12.404,3.955z"/>
	<path class="st4" d="M9.159,2.153c0.007,0.646-0.514,1.174-1.162,1.181S6.817,2.822,6.81,2.177s0.514-1.174,1.162-1.181
		S9.152,1.507,9.159,2.153z"/>
	<path class="st5" d="M5.471,2.602c0.388,0.517,0.281,1.25-0.239,1.636S3.976,4.518,3.588,4s-0.281-1.25,0.239-1.636
		S5.083,2.085,5.471,2.602z"/>
	<path class="st6" d="M2.759,5.13c0.62,0.19,0.968,0.844,0.777,1.461C3.345,7.208,2.688,7.554,2.068,7.364
		C1.448,7.174,1.1,6.52,1.291,5.903S2.139,4.94,2.759,5.13z"/>
	<path class="st7" d="M2.068,8.763c0.613-0.211,1.282,0.114,1.493,0.724s-0.114,1.276-0.727,1.486
		c-0.613,0.211-1.282-0.114-1.493-0.724C1.129,9.639,1.454,8.973,2.068,8.763z"/>
	<path class="st8" d="M3.663,12.102c0.37-0.53,1.102-0.661,1.635-0.292c0.533,0.369,0.664,1.097,0.294,1.627
		c-0.37,0.53-1.102,0.661-1.635,0.292S3.292,12.632,3.663,12.102z"/>
	<path class="st9" d="M6.93,13.863c-0.015-0.645,0.499-1.181,1.147-1.196c0.649-0.015,1.186,0.496,1.202,1.142
		s-0.499,1.181-1.147,1.196C7.483,15.019,6.945,14.508,6.93,13.863z"/>
</g>
</svg>
